<?xml version="1.0" encoding="utf-8"?>
<!-- Generator: Adobe Illustrator 25.4.1, SVG Export Plug-In . SVG Version: 6.00 Build 0)  -->
<svg version="1.1" id="Layer_1" xmlns="http://www.w3.org/2000/svg" xmlns:xlink="http://www.w3.org/1999/xlink" x="0px" y="0px"
	 viewBox="0 0 800 800" style="enable-background:new 0 0 800 800;" xml:space="preserve">
<style type="text/css">
	.st0{fill:none;stroke:#000000;stroke-width:8;stroke-linecap:round;stroke-linejoin:round;stroke-miterlimit:10;}
	.st1{fill:none;stroke:#000000;stroke-width:3;stroke-linecap:round;stroke-linejoin:round;stroke-miterlimit:10;}
	.st2{fill:none;stroke:#231F20;stroke-width:3;stroke-linecap:round;stroke-linejoin:round;stroke-miterlimit:10;}
	.st3{fill:#231F20;}
	.st4{fill:#FFF0D7;}
	.st5{fill:#F7DEBA;}
	.st6{fill:#FFC754;}
	.st7{fill:#F79331;}
	.st8{fill:#E4E9F6;}
	.st9{fill:none;stroke:#F7DEBA;stroke-width:2;stroke-miterlimit:10;}
	.st10{fill:none;stroke:#303030;stroke-width:13;stroke-linecap:round;stroke-linejoin:round;stroke-miterlimit:10;}
	.st11{fill:none;stroke:#303030;stroke-width:4;stroke-linecap:round;stroke-linejoin:round;stroke-miterlimit:10;}
	.st12{fill:#231F20;stroke:#231F20;stroke-width:3;stroke-miterlimit:10;}
	.st13{fill:#FFFFFF;}
	.st14{fill:#FFFFFF;stroke:#231F20;stroke-width:3;stroke-miterlimit:10;}
	.st15{fill:#FFFFFF;stroke:#231F20;stroke-width:2;stroke-miterlimit:10;}
	.st16{fill:none;stroke:#FFFFFF;stroke-linecap:round;stroke-linejoin:round;stroke-miterlimit:10;}
	.st17{fill:none;stroke:#000000;stroke-width:13;stroke-linecap:round;stroke-linejoin:round;stroke-miterlimit:10;}
	.st18{fill:#FFFFFF;stroke:#000000;stroke-miterlimit:10;}
	.st19{fill:none;stroke:#FFFFFF;stroke-width:12;stroke-linecap:round;stroke-linejoin:round;stroke-miterlimit:10;}
	.st20{fill:#FFFFFF;stroke:#000000;stroke-width:3;stroke-miterlimit:10;}
	.st21{stroke:#000000;stroke-width:3;stroke-miterlimit:10;}
	.st22{fill:none;stroke:#FFFFFF;stroke-width:3;stroke-linecap:round;stroke-linejoin:round;stroke-miterlimit:10;}
	.st23{fill:none;stroke:#000000;stroke-width:1.5;stroke-linecap:round;stroke-linejoin:round;stroke-miterlimit:10;}
	.st24{fill:#E59200;}
	.st25{fill:#E59200;stroke:#E59200;stroke-miterlimit:10;}
	.st26{fill:#FFFFFF;stroke:#FFFFFF;stroke-width:12;stroke-linecap:round;stroke-linejoin:round;stroke-miterlimit:10;}
	.st27{fill:#FFFFFF;stroke:#E01E1E;stroke-width:3;stroke-miterlimit:10;}
	.st28{stroke:#FFFFFF;stroke-miterlimit:10;}
	.st29{stroke:#FFFFFF;stroke-width:2;stroke-miterlimit:10;}
	.st30{fill:none;stroke:#FFFFFF;stroke-width:2;stroke-linecap:round;stroke-linejoin:round;stroke-miterlimit:10;}
	.st31{stroke:#FFFFFF;stroke-width:2;stroke-linecap:round;stroke-linejoin:round;stroke-miterlimit:10;}
	.st32{stroke:#000000;stroke-width:3;stroke-linecap:round;stroke-linejoin:round;stroke-miterlimit:10;}
	.st33{fill:none;}
	.st34{fill:none;stroke:#000000;stroke-width:6;stroke-miterlimit:10;}
	.st35{fill:none;stroke:#000000;stroke-width:3;stroke-miterlimit:10;}
	.st36{fill:none;stroke:#000000;stroke-width:3;stroke-linecap:round;stroke-miterlimit:10;}
	.st37{fill:#FFFFFF;stroke:#000000;stroke-width:2;stroke-linecap:round;stroke-linejoin:round;stroke-miterlimit:10;}
	.st38{fill:none;stroke:#FFFFFF;stroke-width:2;stroke-miterlimit:10;}
	.st39{fill:#E59200;stroke:#000000;stroke-width:3;stroke-linecap:round;stroke-linejoin:round;stroke-miterlimit:10;}
	.st40{fill:#FFFFFF;stroke:#FFFFFF;stroke-width:2;stroke-linecap:round;stroke-linejoin:round;stroke-miterlimit:10;}
</style>
<g>
	<path class="st13" d="M524.5,417.47c-1.42-2.04-3.12-3.97-4.93-5.63c0.03-3.13,0.13-6.09,0.45-9.09c0.35-3.29,1.13-6.78,1.88-10.15
		c0.65-2.92,1.32-5.92,1.79-9.03c0.48-3.11,0.77-6.4,0.92-10.34c0.06-1.55,0.09-3.22,0.1-5.1c0-0.61,0-1.68,0-2.75
		c0-0.08,0-0.17,0-0.25c2.1-2.94,3.14-6.56,2.84-10.23c-0.41-5.07-3.4-9.65-7.9-12.19l-0.08-0.08l-0.92-0.44
		c-1.45-0.69-2.96-1.14-4.5-1.35c-2.9-3.36-7.16-5.36-11.69-5.36c-3.81,0-8.53,2.54-7.32,1.19c1.21-1.35,1.86-3.08,1.86-4.89
		c1.78-0.2,3.45-1.05,4.66-2.41c0.59-0.66,1.04-1.41,1.35-2.21c0.76-0.4,1.45-0.93,2.03-1.58c1.31-1.46,1.97-3.35,1.86-5.31
		c-0.11-1.96-0.98-3.76-2.44-5.07l-21.66-19.35c-0.89-1.37-6.34-9.21-15.02-10.24c-0.64-0.08-1.29-0.11-1.93-0.11
		c-0.72,0-1.42,0.06-2.11,0.14l1.24-2.08l-3.52-3.24l-0.88-0.81c-1.13-1.04-7.18-6.26-14.91-6.26c-0.79,0-1.59,0.06-2.36,0.17
		c-1.79,0.26-3.44,0.82-4.93,1.54l0.58-2.03l-4.24-2.22l-1.06-0.56c-0.9-0.47-5.63-2.79-11.26-2.79c-2.51,0-4.86,0.46-6.99,1.37
		c-1.75,0.75-3.25,1.78-4.55,2.92l0.07-4.6l-4.67-1.05l-1.17-0.26c-0.41-0.09-2.6-0.55-5.48-0.55c-4.94,0-9.27,1.35-12.52,3.91
		c-0.08,0.06-0.15,0.14-0.23,0.2l0-1.22l-4.69-0.96l-1.17-0.24c-0.53-0.11-2.42-0.45-4.94-0.45c-5.18,0-9.67,1.44-12.98,4.16
		c-1.09,0.89-1.99,1.9-2.78,2.95l-0.64-2.35l-4.78,0.29l-1.19,0.07c-1.12,0.07-11.08,0.87-16.36,8.22c-1.06,1.48-1.8,3.05-2.31,4.63
		l-1.06-1.83l-4.53,1.51l-1.13,0.38c-1.07,0.36-10.49,3.73-13.67,12.18c-0.67,1.78-0.97,3.57-1.04,5.31l-3.27-3.24l-3.99,2.64
		l-1,0.66c-0.93,0.61-9.16,6.29-10.05,15.3c-0.5,5.01,1.45,9.46,3.4,12.56c-18.98,22.45-29.41,50.9-29.41,80.36
		c0,68.67,55.87,124.55,124.55,124.55c24.05,0,47.39-6.87,67.5-19.86c19.58-12.65,35.19-30.45,45.13-51.48
		c0.45-0.94,0.68-1.95,0.7-2.96c10.56-4.34,17.44-10.61,20.49-18.74C531.19,432.24,528.17,422.72,524.5,417.47z"/>
	<g>
		<path d="M480.88,310.97c-4.89-4.37-12.83-3.16-13.17-3.11l-1.2,0.19l-0.06,1.22c-0.02,0.34-0.33,8.37,4.56,12.74
			c3.11,2.77,7.44,3.3,10.28,3.3c1.63,0,2.77-0.17,2.9-0.19l1.2-0.19l0.06-1.22C485.46,323.37,485.78,315.34,480.88,310.97z"/>
		<path d="M479.5,297.07c-0.18-0.29-4.53-7.04-11.05-7.82c-6.53-0.77-12.33,4.77-12.57,5.01l-0.88,0.85l0.65,1.03
			c0.18,0.29,4.53,7.04,11.05,7.82c0.42,0.05,0.85,0.07,1.26,0.07c5.99,0,11.08-4.86,11.31-5.08l0.88-0.85L479.5,297.07z"/>
		<g>
			<path class="st13" d="M460.99,309.06c-1.35-5.77-8.2-9.09-8.2-9.09s-4.65,6.03-3.3,11.79c1.35,5.77,8.2,9.09,8.2,9.09
				S462.35,314.83,460.99,309.06z"/>
			<path d="M458.14,322.74l-1.1-0.53c-0.31-0.15-7.51-3.71-9.01-10.1c-1.5-6.39,3.36-12.78,3.57-13.05l0.75-0.97l1.1,0.53
				c0.31,0.15,7.51,3.71,9.01,10.1l0,0c1.5,6.39-3.36,12.78-3.57,13.05L458.14,322.74z M453.26,301.96
				c-1.14,1.85-3.16,5.79-2.3,9.46c0.86,3.67,4.43,6.3,6.28,7.45c1.14-1.85,3.16-5.79,2.3-9.46
				C458.67,305.74,455.11,303.11,453.26,301.96z"/>
		</g>
		<path d="M457.76,281.48c-0.25-0.23-6.2-5.64-12.69-4.69c-6.49,0.94-10.67,7.8-10.84,8.09l-0.63,1.05l0.9,0.83
			c0.23,0.21,5.28,4.8,11.15,4.8c0.51,0,1.02-0.03,1.54-0.11c6.5-0.94,10.67-7.8,10.85-8.09l0.63-1.05L457.76,281.48z"/>
		<path d="M444.31,297.15c-3.1-5.78-10.98-7.36-11.31-7.42l-1.2-0.23l-0.47,1.13c-0.13,0.31-3.17,7.75-0.07,13.53
			c3.1,5.78,10.98,7.36,11.31,7.42l1.2,0.23l0.47-1.13C444.37,310.37,447.41,302.93,444.31,297.15z"/>
		<g>
			<path class="st13" d="M423.35,283.81c-5.44,2.34-12.19-1.2-12.19-1.2s2.09-7.32,7.53-9.66s12.19,1.2,12.19,1.2
				S428.79,281.48,423.35,283.81z"/>
			<path d="M419.17,286.11c-4.5,0-8.48-2.05-8.71-2.17l-1.08-0.57l0.33-1.17c0.09-0.33,2.35-8.04,8.38-10.62
				c6.03-2.58,13.18,1.09,13.48,1.25l1.08,0.57l-0.33,1.17c-0.09,0.33-2.35,8.04-8.38,10.62
				C422.38,285.86,420.74,286.11,419.17,286.11z M413.04,281.81c2.02,0.81,6.25,2.11,9.72,0.62l0,0c3.48-1.49,5.44-5.45,6.25-7.47
				c-2.02-0.81-6.25-2.11-9.72-0.63C415.82,275.82,413.85,279.79,413.04,281.81z"/>
		</g>
		<path d="M422.64,291.45c-4.49-4.78-12.51-4.27-12.85-4.24l-1.22,0.09l-0.16,1.21c-0.05,0.34-1.06,8.31,3.44,13.09
			c3.63,3.87,9.57,4.27,11.89,4.27c0.55,0,0.9-0.02,0.96-0.03l1.22-0.09l0.16-1.21C426.12,304.2,427.13,296.23,422.64,291.45z"/>
		<path d="M403.9,268.87c-0.33-0.07-8.18-1.78-13.34,2.28c-5.16,4.06-5.34,12.09-5.35,12.43l-0.02,1.22l1.19,0.27
			c0.15,0.03,1.92,0.42,4.28,0.42c2.74,0,6.29-0.52,9.06-2.7v0c5.16-4.06,5.34-12.09,5.35-12.43l0.02-1.22L403.9,268.87z"/>
		<path d="M406.79,300.92c-0.04-0.34-1.13-8.3-6.71-11.75c-5.58-3.46-13.19-0.88-13.51-0.77l-1.15,0.4l0.16,1.21
			c0.04,0.34,1.13,8.3,6.71,11.75c2.22,1.38,4.77,1.8,7.04,1.8c3.44,0,6.27-0.96,6.47-1.02l1.15-0.4L406.79,300.92z"/>
		<path d="M380.63,270.3l-1.2-0.24c-0.33-0.07-8.22-1.62-13.29,2.55c-5.07,4.16-5.1,12.19-5.1,12.53l0,1.22l1.2,0.24
			c0.14,0.03,1.71,0.34,3.85,0.34c2.79,0,6.57-0.53,9.44-2.88c5.07-4.16,5.1-12.19,5.1-12.53L380.63,270.3z"/>
		<g>
			<path class="st13" d="M375.26,291.72c-5.1-3.02-12.24-0.39-12.24-0.39s1.12,7.53,6.22,10.55s12.24,0.39,12.24,0.39
				S380.35,294.74,375.26,291.72z"/>
			<path d="M375.19,304.83c-2.18,0-4.59-0.4-6.72-1.66c-5.65-3.35-6.89-11.28-6.94-11.62l-0.18-1.21l1.14-0.42
				c0.32-0.12,7.88-2.84,13.52,0.5l0,0c5.65,3.35,6.89,11.28,6.94,11.62l0.18,1.21l-1.14,0.42
				C381.8,303.75,378.79,304.83,375.19,304.83z M364.78,292.37c0.54,2.11,1.98,6.3,5.22,8.22c3.24,1.92,7.61,1.18,9.72,0.64
				c-0.54-2.11-1.98-6.3-5.22-8.22l0,0C371.25,291.09,366.88,291.83,364.78,292.37z"/>
		</g>
		<path d="M354.67,276.03l-0.32-1.18l-1.22,0.07c-0.34,0.02-8.35,0.57-12.18,5.9c-3.82,5.33-1.77,13.1-1.68,13.43l0.32,1.18
			l1.22-0.07c0.34-0.02,8.35-0.57,12.18-5.9C356.81,284.13,354.76,276.36,354.67,276.03z"/>
		<path d="M364.81,304.92c-0.14-0.31-3.39-7.66-9.71-9.43c-6.32-1.77-12.92,2.82-13.19,3.01l-1,0.7l0.49,1.12
			c0.14,0.31,3.39,7.66,9.71,9.43c1.02,0.29,2.04,0.41,3.05,0.41c5.23,0,9.91-3.25,10.14-3.42l1-0.7L364.81,304.92z"/>
		<g>
			<path class="st13" d="M330.96,301.36c-2.09,5.54-9.31,7.96-9.31,7.96s-3.83-6.58-1.74-12.12c2.09-5.54,9.31-7.96,9.31-7.96
				S333.05,295.81,330.96,301.36z"/>
			<path d="M320.97,311.12l-0.61-1.05c-0.17-0.29-4.17-7.26-1.85-13.41c2.31-6.14,9.91-8.74,10.24-8.85l1.16-0.39l0.61,1.05
				c0.17,0.29,4.17,7.26,1.85,13.4c-2.31,6.14-9.91,8.74-10.24,8.85L320.97,311.12z M328.5,291.15c-1.98,0.9-5.86,3.04-7.19,6.57
				c-1.34,3.55,0.16,7.7,1.06,9.68c1.98-0.9,5.86-3.04,7.19-6.57C330.9,297.28,329.4,293.12,328.5,291.15z"/>
		</g>
		<path d="M347.79,313.75c-0.21-0.27-5.25-6.52-11.82-6.59c-6.56-0.07-11.75,6.06-11.96,6.32l-0.78,0.94l0.76,0.96
			c0.21,0.27,5.25,6.52,11.82,6.59c0.04,0,0.08,0,0.12,0c6.51,0,11.63-6.06,11.85-6.32l0.78-0.94L347.79,313.75z"/>
		<path d="M308.6,305.21l-0.87-0.86l-1.02,0.67c-0.28,0.19-6.95,4.67-7.6,11.2c-0.65,6.53,5.02,12.23,5.26,12.47l0.87,0.86
			l1.02-0.67c0.28-0.19,6.95-4.67,7.6-11.2C314.5,311.15,308.84,305.45,308.6,305.21z"/>
		<path d="M331.83,325.15c-0.27-0.2-6.76-4.93-13.12-3.31c-6.36,1.63-9.78,8.9-9.92,9.21l-0.51,1.11l0.98,0.73
			c0.23,0.17,5,3.65,10.34,3.65c0.92,0,1.85-0.1,2.78-0.34c6.36-1.63,9.78-8.9,9.92-9.21l0.51-1.11L331.83,325.15z"/>
		<g>
			<line x1="491.5" y1="330.39" x2="483.95" y2="323.64"/>
			<path d="M491.49,331.89c-0.36,0-0.71-0.13-1-0.38l-7.55-6.74c-0.62-0.55-0.67-1.5-0.12-2.12c0.55-0.62,1.5-0.67,2.12-0.12
				l7.55,6.74c0.62,0.55,0.67,1.5,0.12,2.12C492.32,331.72,491.91,331.89,491.49,331.89z"/>
		</g>
		<g>
			<line x1="501.6" y1="319.08" x2="479.11" y2="298.98"/>
			<path d="M501.6,320.58c-0.36,0-0.71-0.13-1-0.38l-22.49-20.09c-0.62-0.55-0.67-1.5-0.12-2.12c0.55-0.62,1.5-0.67,2.12-0.12
				l22.49,20.09c0.62,0.55,0.67,1.5,0.12,2.12C502.42,320.41,502.01,320.58,501.6,320.58z"/>
		</g>
		<g>
			<line x1="498.14" y1="322.95" x2="481.1" y2="307.72"/>
			<path d="M498.14,324.45c-0.36,0-0.71-0.13-1-0.38l-17.04-15.23c-0.62-0.55-0.67-1.5-0.12-2.12c0.55-0.62,1.5-0.67,2.12-0.12
				l17.04,15.23c0.62,0.55,0.67,1.5,0.12,2.12C498.97,324.28,498.56,324.45,498.14,324.45z"/>
		</g>
		<g>
			<line x1="484.85" y1="337.83" x2="467.8" y2="322.6"/>
			<path d="M484.85,339.33c-0.36,0-0.71-0.13-1-0.38l-17.04-15.23c-0.62-0.55-0.67-1.5-0.12-2.12c0.55-0.62,1.5-0.67,2.12-0.12
				l17.04,15.23c0.62,0.55,0.67,1.5,0.12,2.12C485.67,339.16,485.26,339.33,484.85,339.33z"/>
		</g>
		<g>
			<line x1="481.49" y1="341.58" x2="459" y2="321.49"/>
			<path d="M481.49,343.08c-0.36,0-0.71-0.13-1-0.38L458,322.61c-0.62-0.55-0.67-1.5-0.12-2.12c0.55-0.62,1.5-0.67,2.12-0.12
				l22.49,20.09c0.62,0.55,0.67,1.5,0.12,2.12C482.31,342.91,481.9,343.08,481.49,343.08z"/>
		</g>
	</g>
	<g>
		<path d="M522.14,421.26c-3.21-4.59-8.94-9.83-14.59-9.44c-2.08,0.14-4.99,1.16-7.06,5.21c-1.36,2.66-2.87,4.23-4.24,4.42
			c-0.78,0.11-1.45-0.24-1.86-0.53c0.12-2.78,0.04-12-6.09-14.2c-2.24-0.8-4.15-0.7-5.68,0.3c-2.5,1.65-2.76,5.01-2.78,5.39
			l-0.01,0.12l0.01,0.12c0.38,3.66-0.08,7.62-1.29,11.18c-4.51,13.27-24.37,17.45-35.82,16.98c-9.24-0.39-18.53-3.05-26.51-7.41
			c-0.76,3.37-0.2,6.96,1.72,10.03c2.95,4.69,8.37,7.05,13.83,6.01c0.81-0.15,1.6,0.38,1.75,1.19c0.16,0.81-0.38,1.6-1.19,1.75
			c-1.05,0.2-2.1,0.3-3.13,0.3c-5.56,0-10.76-2.81-13.8-7.66c-3.61-5.75-3.33-12.99,0.72-18.45c0.07-0.09,0.15-0.17,0.23-0.24
			c0.73-1.05,1.58-2.01,2.55-2.88c7.96-7.1,27.56-24.08,37.65-28.33c12.85-5.43,13.9-18.39,13.94-18.89l1.52-15.22l-1.07-0.41
			c-0.15-0.06-14.87-5.73-19.91-11.16c-1.97-2.11-3.52-4.56-5.15-7.14c-2.47-3.91-5.03-7.95-9.25-11.05
			c-5.92-4.36-17.71-6.26-21.43-6.77c-0.64-3.31-3.26-12.56-12.98-16.67c-10.16-4.3-17.4,3.77-17.47,3.85l-0.32,0.36l-1.57,15.72
			c-4.18,1.67-24.9,9.03-57.8,6.05c0,0,0,0,0,0c-0.01,0-0.01,0-0.02,0c-0.08-0.01-0.16-0.01-0.24-0.02
			c-0.05-0.01-0.11-0.01-0.16-0.01c-5.47-0.51-10.92-0.87-16.35-1.6c-18.9,20.62-30.44,48.08-30.44,78.18
			c0,63.89,51.98,115.86,115.87,115.86c2.33,0,4.65-0.07,6.97-0.21c5.42-0.32,10.82-1.03,16.15-2.11
			c5.22-1.06,10.36-2.48,15.38-4.26c4.95-1.75,9.78-3.84,14.45-6.24c4.63-2.39,9.09-5.09,13.36-8.07c4.25-2.97,8.29-6.23,12.11-9.74
			c3.81-3.51,7.39-7.27,10.7-11.25c4.2-4.9,7.93-10.32,11.14-15.91c1.77-3.08,3.41-6.25,4.91-9.48
			c13.91-3.74,22.59-9.93,25.77-18.42C527.45,432.97,525.05,425.43,522.14,421.26z"/>
		<g>
			<path class="st13" d="M461.99,359.97c-0.13,0.56-0.2,1.12-0.2,1.7c0,3.76,2.79,6.88,6.41,7.39l0.61-6.07
				C467.44,362.43,464.89,361.37,461.99,359.97z"/>
			<path class="st13" d="M434.13,354.34l-0.06-0.51l-13.04-3.19l-0.2,0.28c-0.84,1.21-1.29,2.64-1.3,4.12
				c-0.01,1.96,0.74,3.81,2.11,5.2c1.38,1.39,3.21,2.17,5.17,2.18c0.02,0,0.03,0,0.05,0c4.02,0,7.31-3.26,7.34-7.29
				C434.19,354.86,434.16,354.6,434.13,354.34z"/>
			<g>
				<g>
					<path class="st13" d="M399.96,327.41c-0.27,0-0.55-0.07-0.8-0.23c-0.7-0.44-0.91-1.37-0.47-2.07c0.98-1.56,0.91-3.52-0.18-5
						c-1.09-1.48-2.95-2.12-4.72-1.64c-0.8,0.21-1.62-0.26-1.84-1.06c-0.22-0.8,0.26-1.62,1.06-1.84c2.98-0.8,6.09,0.28,7.92,2.75
						s1.95,5.77,0.31,8.38C400.94,327.16,400.46,327.41,399.96,327.41z"/>
				</g>
			</g>
			<g>
				<g>
					<g>
						<path class="st13" d="M368,422.91c-0.62,0-1.25-0.04-1.89-0.11c-6.74-0.77-12.22-5.51-13.96-12.08
							c-0.21-0.8,0.26-1.62,1.07-1.83c0.79-0.21,1.62,0.26,1.83,1.07c1.42,5.37,5.9,9.24,11.4,9.86c5.5,0.62,10.73-2.14,13.32-7.05
							c0.39-0.73,1.29-1.01,2.03-0.63c0.73,0.39,1.01,1.29,0.63,2.03C379.56,419.61,374.03,422.91,368,422.91z"/>
					</g>
				</g>
				<g>
					<g>
						<path class="st13" d="M367.15,400.2c-4.89,0-9.58-2.19-12.74-6.18c-4.22-5.31-4.75-12.53-1.33-18.41
							c0.42-0.72,1.33-0.96,2.05-0.54c0.72,0.42,0.96,1.33,0.54,2.05c-2.79,4.8-2.36,10.7,1.09,15.04c3.45,4.34,9.1,6.08,14.41,4.44
							c0.79-0.25,1.63,0.2,1.88,0.99c0.24,0.79-0.2,1.63-0.99,1.88C370.42,399.96,368.77,400.2,367.15,400.2z"/>
					</g>
				</g>
				<g>
					<g>
						<path class="st13" d="M382.98,441.78c-2.83,0-5.67-0.74-8.25-2.24c-0.72-0.42-0.96-1.33-0.54-2.05
							c0.42-0.71,1.33-0.96,2.05-0.54c4.8,2.79,10.7,2.36,15.04-1.09c4.33-3.45,6.07-9.1,4.43-14.41c-0.24-0.79,0.2-1.63,0.99-1.88
							c0.79-0.25,1.63,0.2,1.88,0.99c2.01,6.49-0.12,13.42-5.43,17.64C390.17,440.58,386.58,441.78,382.98,441.78z"/>
					</g>
				</g>
				<g>
					<g>
						<path class="st13" d="M339.33,405.32c-3.39,0-6.76-1.06-9.65-3.18c-5.47-4.01-7.88-10.84-6.13-17.41
							c0.21-0.8,1.03-1.28,1.84-1.06c0.8,0.21,1.28,1.03,1.06,1.83c-1.43,5.36,0.54,10.95,5.01,14.22
							c4.47,3.27,10.38,3.46,15.07,0.49c0.7-0.45,1.63-0.24,2.07,0.46c0.44,0.7,0.24,1.63-0.46,2.07
							C345.42,404.46,342.37,405.32,339.33,405.32z"/>
					</g>
				</g>
				<g>
					<g>
						<path class="st13" d="M345.37,439.95c-0.16,0-0.31,0-0.47-0.01c-6.78-0.19-12.65-4.45-14.94-10.84
							c-0.28-0.78,0.13-1.64,0.91-1.92c0.78-0.28,1.64,0.12,1.92,0.91c1.87,5.23,6.66,8.7,12.2,8.86
							c5.52,0.12,10.51-3.05,12.68-8.16c0.32-0.76,1.21-1.12,1.97-0.8c0.76,0.32,1.12,1.2,0.8,1.97
							C357.83,436.07,351.96,439.95,345.37,439.95z"/>
					</g>
				</g>
			</g>
		</g>
		<g>
			<g>
				<g>
					<path d="M511.34,430.09c-0.05,0-0.1,0-0.15,0c-1.6-0.01-19.05-0.01-20.65,0c-0.89,0-2.34,0.01-3.42-1.02
						c-0.75-0.71-1.17-1.75-1.23-3.09c-0.16-3.32-0.16-6.6-0.17-9.77c-0.01-4.82-0.01-9.38-0.51-14.04
						c-0.39-3.7-1.23-7.44-2.03-11.05c-0.64-2.86-1.3-5.83-1.75-8.8c-0.45-2.95-0.73-6.08-0.87-9.86c-0.06-1.51-0.09-3.11-0.1-5.02
						c0-0.61,0-1.69,0-2.77c0-2.63,2.14-4.76,4.77-4.76h31.29c2.63,0,4.77,2.14,4.77,4.76v0c0,1.08,0,2.15,0,2.77
						c-0.01,1.88-0.04,3.52-0.1,5.02c-0.14,3.78-0.42,6.92-0.87,9.87c-0.45,2.97-1.11,5.93-1.75,8.8c-0.8,3.61-1.64,7.35-2.03,11.05
						c-0.5,4.67-0.5,9.22-0.51,14.04c0,3.17-0.01,6.45-0.17,9.77c-0.06,1.34-0.48,2.38-1.23,3.09
						C513.59,430.04,512.23,430.09,511.34,430.09z M500.86,427.09c4.77,0,9.53,0,10.34,0c0.34,0,1.14,0,1.35-0.2
						c0.06-0.06,0.26-0.3,0.29-1.05c0.15-3.25,0.16-6.5,0.16-9.63c0.01-4.68,0.01-9.53,0.53-14.35c0.41-3.87,1.26-7.69,2.09-11.38
						c0.63-2.82,1.28-5.73,1.71-8.6c0.44-2.84,0.7-5.86,0.84-9.52c0.05-1.47,0.09-3.08,0.1-4.93c0-0.61,0-1.68,0-2.75
						c0-0.97-0.79-1.77-1.77-1.77h-31.29c-0.97,0-1.77,0.79-1.77,1.77c0,1.07,0,2.14,0,2.75c0.01,1.88,0.04,3.44,0.1,4.93
						c0.13,3.66,0.4,6.69,0.84,9.52c0.44,2.87,1.09,5.78,1.71,8.6c0.82,3.7,1.68,7.52,2.09,11.39c0.51,4.82,0.52,9.67,0.53,14.36
						c0,3.14,0.01,6.38,0.16,9.63c0.04,0.75,0.23,0.99,0.29,1.05c0.21,0.2,1,0.2,1.35,0.2
						C491.33,427.09,496.09,427.09,500.86,427.09z"/>
					<path class="st13" d="M500.86,427.09c4.77,0,9.53,0,10.34,0c0.34,0,1.14,0,1.35-0.2c0.06-0.06,0.26-0.3,0.29-1.05
						c0.15-3.25,0.16-6.5,0.16-9.63c0.01-4.68,0.01-9.53,0.53-14.35c0.41-3.87,1.26-7.69,2.09-11.38c0.63-2.82,1.28-5.73,1.71-8.6
						c0.44-2.84,0.7-5.86,0.84-9.52c0.05-1.47,0.09-3.08,0.1-4.93c0-0.61,0-1.68,0-2.75c0-0.97-0.79-1.77-1.77-1.77h-31.29
						c-0.97,0-1.77,0.79-1.77,1.77c0,1.07,0,2.14,0,2.75c0.01,1.88,0.04,3.44,0.1,4.93c0.13,3.66,0.4,6.69,0.84,9.52
						c0.44,2.87,1.09,5.78,1.71,8.6c0.82,3.7,1.68,7.52,2.09,11.39c0.51,4.82,0.52,9.67,0.53,14.36c0,3.14,0.01,6.38,0.16,9.63
						c0.04,0.75,0.23,0.99,0.29,1.05c0.21,0.2,1,0.2,1.35,0.2C491.33,427.09,496.09,427.09,500.86,427.09z"/>
				</g>
				<path class="st20" d="M502.47,428.59c4.18,0,8.01,0,8.72,0c0.04,0,0.09,0,0.14,0C508.96,428.59,505.62,428.59,502.47,428.59z"/>
				<path d="M486.94,368.79c-0.81,0-1.46,0.67-1.43,1.48c0.12,3.01,0.29,9.69,0.56,11.83c0.84,6.68,3.53,13.19,4.12,19.91
					c0.45,5.17,0.42,13.25,0.43,19.27c0,1.5,1.22,2.71,2.71,2.71c3.92,0,11.13,0,15.04,0c1.5,0,2.71-1.21,2.71-2.71
					c0.01-6.02-0.02-14.1,0.43-19.27c0.59-6.72,3.29-13.23,4.12-19.91c0.27-2.14,0.45-8.81,0.56-11.83
					c0.03-0.81-0.62-1.48-1.43-1.48H486.94z"/>
				<g>
					<path class="st13" d="M517.87,347.79c-1.36-0.65-2.67-0.85-3.9-0.78c-0.89,0.06-1.77-0.34-2.21-1.12
						c-1.41-2.52-4.11-4.23-7.2-4.23c-3.01,0-5.64,1.61-7.08,4.02c-0.28,0.47-0.86,0.64-1.36,0.42c-0.76-0.33-1.59-0.52-2.47-0.52
						c-3.02,0-5.52,2.17-6.06,5.03c-0.07,0.36-0.43,0.58-0.78,0.48c-0.99-0.27-2.08-0.31-3.2-0.02c-2.23,0.56-3.99,2.4-4.46,4.65
						c-0.63,3.05,0.99,5.82,3.52,6.95c0.6-0.76,1.52-1.26,2.56-1.26h1.42c1.42,0,2.56,1.15,2.56,2.56v14.59v0.1
						c0,1.55,1.16,2.93,2.7,3.02c1.65,0.09,3.01-1.22,3.01-2.85c0-0.09,0-0.26,0-0.26v-17.15h3.62c1.42,0,2.56,1.15,2.56,2.56v5.91
						c0,1.55,1.16,2.93,2.7,3.02c1.65,0.09,3.01-1.22,3.01-2.85c0-0.09,0-8.63,0-8.63h9.69c0.87,0,1.66,0.35,2.24,0.9
						c2.56-1.56,4.21-4.46,3.94-7.73C522.46,351.64,520.54,349.06,517.87,347.79z"/>
					<path d="M492.06,383.18c-0.08,0-0.16,0-0.24-0.01c-2.31-0.12-4.12-2.1-4.12-4.51v-14.68c0-0.59-0.48-1.06-1.06-1.06h-1.42
						c-0.54,0-1.04,0.25-1.38,0.69l-0.72,0.92l-1.07-0.48c-3.32-1.49-5.12-5.03-4.37-8.62c0.58-2.81,2.77-5.09,5.56-5.8
						c1.03-0.26,2.07-0.32,3.09-0.16c0.98-3.16,3.93-5.38,7.31-5.38c0.95,0,1.87,0.17,2.75,0.51c1.79-2.74,4.89-4.43,8.17-4.43
						c3.52,0,6.78,1.91,8.51,4.99c0.13,0.24,0.46,0.38,0.81,0.35c1.58-0.09,3.14,0.21,4.63,0.92l0,0c3.23,1.53,5.4,4.61,5.68,8.03
						c0.3,3.7-1.49,7.2-4.66,9.13l-0.98,0.6l-0.83-0.79c-0.33-0.32-0.76-0.49-1.21-0.49h-8.19v7.13c0,1.19-0.5,2.34-1.36,3.16
						c-0.88,0.83-2.01,1.25-3.23,1.19c-2.31-0.12-4.13-2.1-4.13-4.51v-5.91c0-0.59-0.48-1.06-1.06-1.06h-2.12v15.91
						c0,1.19-0.5,2.34-1.36,3.16C494.24,382.76,493.18,383.18,492.06,383.18z M485.22,359.91h1.42c2.24,0,4.06,1.82,4.06,4.06v14.59
						c0,0.9,0.58,1.58,1.28,1.62c0.39,0.02,0.74-0.11,1.01-0.37c0.27-0.26,0.42-0.61,0.42-0.99v-18.91h5.12
						c2.24,0,4.06,1.82,4.06,4.06v5.91c0,0.8,0.58,1.48,1.28,1.52c0.38,0.02,0.74-0.11,1.01-0.37s0.42-0.61,0.42-0.99v-10.13h11.19
						c0.79,0,1.56,0.2,2.25,0.57c1.7-1.4,2.63-3.53,2.45-5.78c-0.19-2.35-1.71-4.48-3.97-5.56c-1.04-0.49-2.08-0.71-3.16-0.63
						c-1.53,0.1-2.91-0.62-3.61-1.88c-1.2-2.13-3.46-3.46-5.89-3.46c-2.4,0-4.56,1.23-5.8,3.29c-0.66,1.11-2.06,1.54-3.25,1.02
						c-0.59-0.26-1.22-0.39-1.87-0.39c-2.24,0-4.17,1.6-4.58,3.81c-0.11,0.58-0.46,1.09-0.96,1.41c-0.5,0.31-1.12,0.4-1.69,0.25
						c-0.79-0.22-1.61-0.22-2.43-0.01c-1.66,0.42-3.01,1.83-3.36,3.5c-0.39,1.88,0.35,3.73,1.82,4.79
						C483.24,360.24,484.2,359.91,485.22,359.91z"/>
				</g>
				<circle class="st13" cx="496.05" cy="393.85" r="3.06"/>
				<circle class="st13" cx="503.08" cy="405.24" r="3.96"/>
				<circle class="st13" cx="508.88" cy="380.79" r="1.98"/>
			</g>
			<path d="M506.22,428.22c-0.59-1.05-1.71-1.07-3.73-1.1c-1.51-0.02-3.57-0.05-5.97-0.46c-1.72-0.29-2.68-1.35-2.84-2.2
				c-0.12-0.63,0.08-1.44,0.3-2.3c0.21-0.82,0.44-1.74,0.43-2.71c-0.02-1.58-0.15-3-0.39-4.36c-0.8-4.41-2.77-7.29-5.72-8.35
				c-2.25-0.81-4.16-0.71-5.68,0.3c-2.5,1.65-2.76,5.01-2.78,5.39l-0.01,0.12l0.01,0.12c0.38,3.66-0.08,7.63-1.29,11.18
				c-0.33,0.96-0.77,1.89-1.37,2.85l-0.49,0.8l0.5,0.79c1.61,2.56,4,4.11,7.3,4.77c2.4,0.47,4.94,0.68,7.4,0.68
				c6.82,0,13.07-1.61,14.26-3.65C506.67,429.21,506.37,428.49,506.22,428.22z"/>
		</g>
	</g>
	<g>
		<path d="M393.7,531.54c-66.77,0-121.09-54.32-121.09-121.09c0-29.39,10.67-57.74,30.04-79.82c0.55-0.62,1.49-0.69,2.12-0.14
			c0.62,0.55,0.68,1.49,0.14,2.12c-18.89,21.53-29.29,49.18-29.29,77.84c0,65.11,52.97,118.09,118.09,118.09
			c22.8,0,44.93-6.51,63.99-18.83c18.57-12,33.37-28.88,42.8-48.82c0.35-0.75,1.25-1.07,2-0.71c0.75,0.35,1.07,1.25,0.71,2
			c-9.67,20.44-24.85,37.75-43.89,50.05C439.77,524.87,417.08,531.54,393.7,531.54z"/>
	</g>
</g>
</svg>
